/* XPM */
static char *_40e93456f6841578689450f899a4e6eyHxX2Fx3g1zeZP30[] = {
/* columns rows colors chars-per-pixel */
"64 64 6 1 ",
"  c black",
". c #282735",
"X c #43434F",
"o c #61606F",
"O c #7F7E8E",
"+ c #C3C2D0",
/* pixels */
"                                                                ",
"                                                                ",
"                                                                ",
"                                                                ",
"    ........................................................    ",
"    ........................................................    ",
"    ........................................................    ",
"    ........................................................    ",
"    ....XXXXXXXXXXXXXXXXXXXXXXXXXXXXXXXXXXXXXXXXXXXXXXXX....    ",
"    ....XXXXXXXXXXXXXXXXXXXXXXXXXXXXXXXXXXXXXXXXXXXXXXXX....    ",
"    ....XXXXXXXXXXXXXXXXXXXXXXXXXXXXXXXXXXXXXXXXXXXXXXXX....    ",
"    ....XXXXXXXXXXXXXXXXXXXXXXXXXXXXXXXXXXXXXXXXXXXXXXXX....    ",
"    ....XXXXooooooooooooooooooooooooooooooooooooooooXXXX....    ",
"    ....XXXXooooooooooooooooooooooooooooooooooooooooXXXX....    ",
"    ....XXXXooooooooooooooooooooooooooooooooooooooooXXXX....    ",
"    ....XXXXooooooooooooooooooooooooooooooooooooooooXXXX....    ",
"    ....XXXXooooOOOOOOOOOOOOOOOOOOOOOOOOOOOOOOOOooooXXXX....    ",
"    ....XXXXooooOOOOOOOOOOOOOOOOOOOOOOOOOOOOOOOOooooXXXX....    ",
"    ....XXXXooooOOOOOOOOOOOOOOOOOOOOOOOOOOOOOOOOooooXXXX....    ",
"    ....XXXXooooOOOOOOOOOOOOOOOOOOOOOOOOOOOOOOOOooooXXXX....    ",
"    ....XXXXooooOOOO++++++++++++++++++++++++OOOOooooXXXX....    ",
"    ....XXXXooooOOOO++++++++++++++++++++++++OOOOooooXXXX....    ",
"    ....XXXXooooOOOO++++++++++++++++++++++++OOOOooooXXXX....    ",
"    ....XXXXooooOOOO++++++++++++++++++++++++OOOOooooXXXX....    ",
"    ....XXXXooooOOOO++++................++++OOOOooooXXXX....    ",
"    ....XXXXooooOOOO++++................++++OOOOooooXXXX....    ",
"    ....XXXXooooOOOO++++................++++OOOOooooXXXX....    ",
"    ....XXXXooooOOOO++++................++++OOOOooooXXXX....    ",
"    ....XXXXooooOOOO++++................++++OOOOooooXXXX....    ",
"    ....XXXXooooOOOO++++................++++OOOOooooXXXX....    ",
"    ....XXXXooooOOOO++++................++++OOOOooooXXXX....    ",
"    ....XXXXooooOOOO++++................++++OOOOooooXXXX....    ",
"    ....XXXXooooOOOO++++................++++OOOOooooXXXX....    ",
"    ....XXXXooooOOOO++++................++++OOOOooooXXXX....    ",
"    ....XXXXooooOOOO++++................++++OOOOooooXXXX....    ",
"    ....XXXXooooOOOO++++................++++OOOOooooXXXX....    ",
"    ....XXXXooooOOOO++++................++++OOOOooooXXXX....    ",
"    ....XXXXooooOOOO++++................++++OOOOooooXXXX....    ",
"    ....XXXXooooOOOO++++................++++OOOOooooXXXX....    ",
"    ....XXXXooooOOOO++++................++++OOOOooooXXXX....    ",
"    ....XXXXooooOOOO++++++++++++++++++++++++OOOOooooXXXX....    ",
"    ....XXXXooooOOOO++++++++++++++++++++++++OOOOooooXXXX....    ",
"    ....XXXXooooOOOO++++++++++++++++++++++++OOOOooooXXXX....    ",
"    ....XXXXooooOOOO++++++++++++++++++++++++OOOOooooXXXX....    ",
"    ....XXXXooooOOOOOOOOOOOOOOOOOOOOOOOOOOOOOOOOooooXXXX....    ",
"    ....XXXXooooOOOOOOOOOOOOOOOOOOOOOOOOOOOOOOOOooooXXXX....    ",
"    ....XXXXooooOOOOOOOOOOOOOOOOOOOOOOOOOOOOOOOOooooXXXX....    ",
"    ....XXXXooooOOOOOOOOOOOOOOOOOOOOOOOOOOOOOOOOooooXXXX....    ",
"    ....XXXXooooooooooooooooooooooooooooooooooooooooXXXX....    ",
"    ....XXXXooooooooooooooooooooooooooooooooooooooooXXXX....    ",
"    ....XXXXooooooooooooooooooooooooooooooooooooooooXXXX....    ",
"    ....XXXXooooooooooooooooooooooooooooooooooooooooXXXX....    ",
"    ....XXXXXXXXXXXXXXXXXXXXXXXXXXXXXXXXXXXXXXXXXXXXXXXX....    ",
"    ....XXXXXXXXXXXXXXXXXXXXXXXXXXXXXXXXXXXXXXXXXXXXXXXX....    ",
"    ....XXXXXXXXXXXXXXXXXXXXXXXXXXXXXXXXXXXXXXXXXXXXXXXX....    ",
"    ....XXXXXXXXXXXXXXXXXXXXXXXXXXXXXXXXXXXXXXXXXXXXXXXX....    ",
"    ........................................................    ",
"    ........................................................    ",
"    ........................................................    ",
"    ........................................................    ",
"                                                                ",
"                                                                ",
"                                                                ",
"                                                                "
};
