/* XPM */
static char *_9d8bb8d46bb4705960539546786897et7f2KM5oq4tszhta[] = {
/* columns rows colors chars-per-pixel */
"64 64 12 1 ",
"  c #3BA272",
". c #3E6D6F",
"X c #FE291F",
"o c #F8FF3C",
"O c #EAD4AA",
"+ c #E8B796",
"@ c #C28569",
"# c #F77622",
"$ c #BE4A2F",
"% c #A22633",
"& c #D77643",
"* c #FEAE34",
/* pixels */
"                                                                ",
"                                                                ",
"         ...                                                    ",
"         ...                                ...                 ",
"         ...                                ...                 ",
"                                            ...                 ",
"                                                                ",
"                               ...                      ...     ",
"                               ...                      ...     ",
"          X                    ...                      ...     ",
"         XXX                   ...                              ",
"         XXX                                   o                ",
"         XXX                                  ooo               ",
"         XXX                                  ooo               ",
"     XXXX...XXXX                              ooo               ",
"    XXXXX...XXXXX                             ooo               ",
"     XXXX...XXXX                          oooo...oooo     ...   ",
"         XXX                             ooooo...ooooo    ...   ",
"         XXX                              oooo...oooo     ...   ",
"         XXX          ...                     ooo               ",
"         XXX          ...                     ooo               ",
"          X           ...                     ooo               ",
"                                              ooo               ",
"                                    OO  OO     o                ",
"                                    O++ OOO+                    ",
"      ...                          O++@ O+++                    ",
"      ...                         OO@  O++@@                    ",
"      ...                   #####+O@  O++...                    ",
"                           ####$$$#####+ ...              ...   ",
"                          ####$$%###&##& ...              ...   ",
"                         ###&$$%##*&##&&$                 ...   ",
"                        ##&&$$%#*&&&#&#$$                       ",
"                        #&&$$%###&&&&&$$$                       ",
"                      ###&$***$##*#&&#$$                        ",
"                     #$$#$*###*$##&&&&$$$                       ",
"  ...               #$$#$*#&&&##$&&&&&&$$$                      ",
"  ...               #$$#$*&&&&&&&$&&&&&&$$$                     ",
"  ...               #$$#$*&&&$&&&&$&&&&&&$$                     ",
"                    $$$#$&&&&&%$&&&$&&&&&$$                     ",
"                    o$$%%$&&&&$%$$&&%&&&$$$                     ",
"                oooo..$$%%$&&&&$%%%%%$$$$$.                     ",
"               ooooo...ooooo            ...          X          ",
"                oooo...oooo             ...         XXX         ",
"                    ooo                             XXX         ",
"                    ooo                             XXX         ",
"                    ooo                             XXX         ",
"                    ooo                         XXXX...XXXX     ",
"     ...             o                         XXXXX...XXXXX    ",
"     ...                                        XXXX...XXXX     ",
"     ...                                            XXX         ",
"                                                    XXX         ",
"                                                    XXX    ...  ",
"                      ...                           XXX    ...  ",
"                      ...                            X     ...  ",
"                      ...                ...                    ",
"                                         ...                    ",
"                                         ...                    ",
"                                                                ",
"       ...                                                      ",
"       ...                      ...                             ",
"       ...                      ...                    ...      ",
"       ...                      ...                    ...      ",
"                                                       ...      ",
"                                                                "
};
