/* XPM */
static char *_f2f7d2c0f7349faa12d15544a77fc18nvZedlGxJMk7tHs2[] = {
/* columns rows colors chars-per-pixel */
"64 64 12 1 ",
"  c #3BA272",
". c #3E6D6F",
"X c black",
"o c #8D614D",
"O c #663931",
"+ c #221108",
"@ c white",
"# c gray70",
"$ c #D9D5D5",
"% c #B7B7B7",
"& c #353535",
"* c #5F5F5F",
/* pixels */
"                                                                ",
"                                                                ",
"         ...                                                    ",
"         ...                                ...                 ",
"         ...                                ...                 ",
"                                            ...                 ",
"                                                                ",
"                               ...                      ...     ",
"                               ...                      ...     ",
"                               ...                      ...     ",
"                               ...                              ",
"                                                                ",
"                                                                ",
"                                                                ",
"         ...                                                    ",
"         ...                                                    ",
"         ...                               XXXX..         ...   ",
"                                          XooooXXX        ...   ",
"                                          XoOOXoooX       ...   ",
"                      ...                 XOOOXOO+oXXXX         ",
"                      ...                 XXOOXOOOOO@@@XXX      ",
"                      ...                 X#XOXOOOOOO$%$XX      ",
"                                         X@$#XOOOO$$$%$%$X      ",
"                                        X@$$#$OOO$$XXXXXX       ",
"                                       X@$$$#$X$$$$$$$X         ",
"      ...           ++++++           XX@$$$$$#$XXXXXXX          ",
"      ...          +OOOO@@XXXXX++++XX@@$$$$$$#$$X               ",
"      ...         +OOOO$$$@@@@@@@@@@@$$$$$$$$$#X                ",
"                 XOOO#@@@$$$$$$$$$$$$$$$$$$$$$X           ...   ",
"      XXXX       XOO#@$$$$$$$$$$$$$$$$$$##$$$#X           ...   ",
"       X@@XXX   XOO#@$$$$$$@X$$$$$$$$$$#@@$$$X            ...   ",
"        X$@@@XXX@OO@$$$$$$$@X$$$$$$$$##@$$$$$X                  ",
"         XXX$$$$$OX@$$$$$$$@X$$$$$$$##@$$$$$$X                  ",
"            XXXXXXX@$$$$$$@X$$$$$$$###@$$$$$X&                  ",
"                   X$$$$$@XXXXXX$$###X@$$$$$X&                  ",
"  ...              X$$$$@X&     XXXXXX@$$$$X&                   ",
"  ...              X$$$@X&           X$$$$X*&                   ",
"  ...             X#$$@X*&           X$$$X*&                    ",
"                  X$$$X*&            X$$$X*&                    ",
"                  X$$X*&              X$X*&                     ",
"                  X$$X*&              X$X*&                     ",
"                  X$$X*&              X$X*&                     ",
"                  X$$X*&              X$X*&                     ",
"                  X$$X*&              X$X*&                     ",
"                  X$$@X*&             X$@X*&                    ",
"                   X$$@X*&            X$$@X*&                   ",
"                   XXXXX&&            XXXXX&&       ...         ",
"     ...                                            ...         ",
"     ...                                            ...         ",
"     ...                                                        ",
"                                                                ",
"                                                           ...  ",
"                      ...                                  ...  ",
"                      ...                                  ...  ",
"                      ...                ...                    ",
"                                         ...                    ",
"                                         ...                    ",
"                                                                ",
"       ...                                                      ",
"       ...                      ...                             ",
"       ...                      ...                    ...      ",
"       ...                      ...                    ...      ",
"                                                       ...      ",
"                                                                "
};
