/* XPM */
static char *_0142a5036f648bac10259d772c911a0uVCKZ5HU5Hokhmts[] = {
/* columns rows colors chars-per-pixel */
"64 64 3 1 ",
"  c black",
". c #463520",
"X c #8B6438",
/* pixels */
"                                                                ",
" ...................... XXXXXXXXXXXXXXXXXXXXXXX ............... ",
" ...................... XXXXXXXXXXXXXXXXXXXXXXX ............... ",
" ...................... XXXXXXXXXXXXXXXXXXXXXXX ............... ",
" ...................... XXXXXXXXXXXXXXXXXXXXXXX ............... ",
" ...................... XXXXXXXXXXXXXXXXXXXXXXX ............... ",
" ...................... XXXXXXXXXXXXXXXXXXXXXXX ............... ",
" ...................... XXXXXXXXXXXXXXXXXXXXXXX ............... ",
"                                                                ",
" XXXXXX ....................... ....................... XXXXXXX ",
" XXXXXX ....................... ....................... XXXXXXX ",
" XXXXXX ....................... ....................... XXXXXXX ",
" XXXXXX ....................... ....................... XXXXXXX ",
" XXXXXX ....................... ....................... XXXXXXX ",
" XXXXXX ....................... ....................... XXXXXXX ",
" XXXXXX ....................... ....................... XXXXXXX ",
"                                                                ",
" XXXXXXXXXXXXXXXXXXXXXX ....................... XXXXXXXXXXXXXXX ",
" XXXXXXXXXXXXXXXXXXXXXX ....................... XXXXXXXXXXXXXXX ",
" XXXXXXXXXXXXXXXXXXXXXX ....................... XXXXXXXXXXXXXXX ",
" XXXXXXXXXXXXXXXXXXXXXX ....................... XXXXXXXXXXXXXXX ",
" XXXXXXXXXXXXXXXXXXXXXX ....................... XXXXXXXXXXXXXXX ",
" XXXXXXXXXXXXXXXXXXXXXX ....................... XXXXXXXXXXXXXXX ",
" XXXXXXXXXXXXXXXXXXXXXX ....................... XXXXXXXXXXXXXXX ",
"                                                                ",
" ...... XXXXXXXXXXXXXXXXXXXXXXX ....................... ....... ",
" ...... XXXXXXXXXXXXXXXXXXXXXXX ....................... ....... ",
" ...... XXXXXXXXXXXXXXXXXXXXXXX ....................... ....... ",
" ...... XXXXXXXXXXXXXXXXXXXXXXX ....................... ....... ",
" ...... XXXXXXXXXXXXXXXXXXXXXXX ....................... ....... ",
" ...... XXXXXXXXXXXXXXXXXXXXXXX ....................... ....... ",
" ...... XXXXXXXXXXXXXXXXXXXXXXX ....................... ....... ",
"                                                                ",
" .............. XXXXXXXXXXXXXXXXXXXXXXX ....................... ",
" .............. XXXXXXXXXXXXXXXXXXXXXXX ....................... ",
" .............. XXXXXXXXXXXXXXXXXXXXXXX ....................... ",
" .............. XXXXXXXXXXXXXXXXXXXXXXX ....................... ",
" .............. XXXXXXXXXXXXXXXXXXXXXXX ....................... ",
" .............. XXXXXXXXXXXXXXXXXXXXXXX ....................... ",
" .............. XXXXXXXXXXXXXXXXXXXXXXX ....................... ",
"                                                                ",
" ...................... XXXXXXXXXXXXXXXXXXXXXXX XXXXXXXXXXXXXXX ",
" ...................... XXXXXXXXXXXXXXXXXXXXXXX XXXXXXXXXXXXXXX ",
" ...................... XXXXXXXXXXXXXXXXXXXXXXX XXXXXXXXXXXXXXX ",
" ...................... XXXXXXXXXXXXXXXXXXXXXXX XXXXXXXXXXXXXXX ",
" ...................... XXXXXXXXXXXXXXXXXXXXXXX XXXXXXXXXXXXXXX ",
" ...................... XXXXXXXXXXXXXXXXXXXXXXX XXXXXXXXXXXXXXX ",
" ...................... XXXXXXXXXXXXXXXXXXXXXXX XXXXXXXXXXXXXXX ",
"                                                                ",
" XXXXXXXXXXXXXX ....................... XXXXXXXXXXXXXXXXXXXXXXX ",
" XXXXXXXXXXXXXX ....................... XXXXXXXXXXXXXXXXXXXXXXX ",
" XXXXXXXXXXXXXX ....................... XXXXXXXXXXXXXXXXXXXXXXX ",
" XXXXXXXXXXXXXX ....................... XXXXXXXXXXXXXXXXXXXXXXX ",
" XXXXXXXXXXXXXX ....................... XXXXXXXXXXXXXXXXXXXXXXX ",
" XXXXXXXXXXXXXX ....................... XXXXXXXXXXXXXXXXXXXXXXX ",
" XXXXXXXXXXXXXX ....................... XXXXXXXXXXXXXXXXXXXXXXX ",
"                                                                ",
" XXXXXX XXXXXXXXXXXXXXXXXXXXXXX ....................... XXXXXXX ",
" XXXXXX XXXXXXXXXXXXXXXXXXXXXXX ....................... XXXXXXX ",
" XXXXXX XXXXXXXXXXXXXXXXXXXXXXX ....................... XXXXXXX ",
" XXXXXX XXXXXXXXXXXXXXXXXXXXXXX ....................... XXXXXXX ",
" XXXXXX XXXXXXXXXXXXXXXXXXXXXXX ....................... XXXXXXX ",
" XXXXXX XXXXXXXXXXXXXXXXXXXXXXX ....................... XXXXXXX ",
"                                                                "
};
